<?xml version="1.0" encoding="UTF-8"?>
<!DOCTYPE svg PUBLIC "-//W3C//DTD SVG 1.1//EN" "http://www.w3.org/Graphics/SVG/1.1/DTD/svg11.dtd">
<svg xmlns="http://www.w3.org/2000/svg" viewBox="0 0 802 670">
 <path fill="#f64c71" d="m649,633.200009l-485,0l0.219,-51.422c0.553,-130.115 104.408,-237.329 234.506,-239.542q2.108,-0.036 4.223,-0.036l0,0a245.336,245.336 0 0 1 85.752,15.406c92.054,34.282 153.841,121.384 157.951,219.528l2.349,56.066z" id="Path_1"/>
 <rect x="0" y="633.200027" fill="#2f2e41" height="2" width="799" id="Rectangle_1"/>
 <path fill="#2f2e41" d="m398.287,403.207007l21.37,15.543l21.371,182.622l50.512,0l-17.485,-207.879l-69.94,-27.2l-5.828,36.914z" id="Path_2"/>
 <path fill="#2f2e41" d="m308.918,344.924009s-5.828,66.055 17.485,68s112.682,-19.428 112.682,-19.428l42.741,151.537l64.112,-33.027s-38.856,-170.965 -62.169,-180.679s-101.025,-29.147 -101.025,-29.147l-56.344,9.717l-17.482,33.027z" id="Path_3"/>
 <path fill="#2f2e41" d="m448.8,597.486009s-11.657,44.684 -3.886,48.57a140.537,140.537 0 0 1 13.6,7.771l0,-7.771s9.714,9.714 9.714,17.485s52.455,9.714 52.455,0s-1.943,-21.371 -11.657,-27.2s-21.371,-38.856 -21.371,-38.856l-38.855,0.001z" id="Path_4"/>
 <path fill="#2f2e41" d="m505.14,517.832007l3.885,36.913l13.6,23.313l33.027,-36.916l-25.252,-40.8l-25.26,17.49z" id="Path_5"/>
 <path fill="#2f2e41" d="m536.224,554.745009s7.154,-24.46 14.262,-21.944s34.307,27.772 34.307,27.772l19.428,11.657s38.856,3.886 27.2,15.542s-54.4,27.2 -73.826,19.428s-23.313,-9.714 -23.313,-9.714l-5.828,3.886l-23.313,-5.828l3.886,-40.8s5.827,17.486 27.197,0.001z" id="Path_6"/>
 <circle fill="#9f616a" r="44.683998" cy="57.391007" cx="374.973001" id="Ellipse_1"/>
 <path fill="#9f616a" d="m346.8,83.619009s3.886,40.8 -7.771,40.8s1.943,50.512 33.027,50.512s42.744,-60.227 42.744,-60.227s-21.371,-7.771 -17.485,-33.027s-50.515,1.942 -50.515,1.942z" id="Path_7"/>
 <path fill="#3f3d56" d="m343.707,121.305009l-16.332,7l-44.325,18.751a9,9 0 0 0 -5.437,9.294l16.734,148.746s-17.485,36.913 9.714,38.856l3.885,13.6l31.085,-36.913l116.569,-3.886l1.943,-188.45l-53.336,-21.076s-7.255,40.108 -60.5,14.078z" id="Path_8"/>
 <path fill="#3f3d56" d="m289.491,152.588009l-7.179,-2.051a5.919,5.919 0 0 0 -7.471,4.759l-19.053,119.507a41.5,41.5 0 0 0 4.055,25.917c5.887,11.146 18.113,21.254 43.247,9.233l17.485,-126.281l-31.084,-31.084z" id="Path_9"/>
 <path fill="#3f3d56" d="m435.2,125.389009l23.313,3.886l64.112,89.368l5.828,15.542l36.913,-11.657s-1.943,17.485 17.485,15.542c0,0 -23.313,64.112 -71.883,44.684s-64.112,-77.711 -64.112,-77.711l-11.656,-79.654z" id="Path_10"/>
 <path fill="#ccc" d="m462.4,164.242007l-87.426,-34.971l-3.885,11.657l40.8,34.97l50.511,-11.656z" id="Path_11"/>
 <path fill="#2f2e41" d="m348.07,60.240009c1.65,-0.441 1.893,-2.632 1.948,-4.339c0.3,-9.142 5.8,-18.524 14.553,-21.185a24.466,24.466 0 0 1 10.313,-0.568a39.063,39.063 0 0 1 13.967,4.66c2.279,1.281 4.515,2.825 7.1,3.216c1.707,0.259 9.1,2.408 10.8,2.711c3.738,0.665 7.212,4.01 10.8,2.765c3.432,-1.191 4.191,-5.634 4.274,-9.265c0.189,-8.273 -6.092,-19.724 -11.624,-25.878c-4.2,-4.671 -10.519,-6.827 -16.7,-7.948a111.168,111.168 0 0 0 -21.838,-1.328c-9.889,0.176 -20.051,0.94 -28.968,5.218s-16.407,12.794 -16.834,22.675c-0.089,2.058 0.123,4.125 -0.05,6.178c-0.422,5.008 -3.082,9.532 -4.329,14.4a26.35,26.35 0 0 0 3.68,21.057c3.309,4.87 16.543,9.291 16.351,15.176c2.392,-2.478 -3.249,-4.972 -0.857,-7.45a5.893,5.893 0 0 0 1.752,-7.2l-2.54,-9.907c-0.465,-1.814 -0.922,-3.778 -0.22,-5.513c2.727,-6.728 5.67,3.26 8.422,2.525z" id="Path_12"/>
 <path fill="#f2f2f2" d="m371.088,140.931007l-36.913,143.766l143.766,50.513l83.54,-69.941l52.455,-157.365l-85.483,62.169l-157.365,-29.142z" id="Path_13"/>
 <rect x="-2.941286" y="0.775623" fill="#e6e6e6" transform="matrix(0.255,-0.967,0.967,0.255,377.637,155.341) " height="144.669" width="1.942" id="Rectangle_2"/>
 <rect x="-2.941286" y="0.775623" fill="#e6e6e6" transform="matrix(0.255,-0.967,0.967,0.255,373.751,165.055) " height="144.669" width="1.942" id="Rectangle_3"/>
 <rect x="-2.941286" y="0.775623" fill="#e6e6e6" transform="matrix(0.255,-0.967,0.967,0.255,371.808,174.769) " height="144.669" width="1.942" id="Rectangle_4"/>
 <rect x="-2.941286" y="0.775623" fill="#e6e6e6" transform="matrix(0.255,-0.967,0.967,0.255,369.866,184.483) " height="144.669" width="1.942" id="Rectangle_5"/>
 <rect x="-2.941286" y="0.775623" fill="#e6e6e6" transform="matrix(0.255,-0.967,0.967,0.255,367.923,194.197) " height="144.669" width="1.942" id="Rectangle_6"/>
 <rect x="-2.941286" y="0.775623" fill="#e6e6e6" transform="matrix(0.255,-0.967,0.967,0.255,365.98,203.911) " height="144.669" width="1.942" id="Rectangle_7"/>
 <rect x="-2.941286" y="0.775623" fill="#e6e6e6" transform="matrix(0.255,-0.967,0.967,0.255,364.037,213.625) " height="144.669" width="1.942" id="Rectangle_8"/>
 <rect x="-2.941286" y="0.775623" fill="#e6e6e6" transform="matrix(0.255,-0.967,0.967,0.255,362.094,223.338) " height="144.669" width="1.942" id="Rectangle_9"/>
 <rect x="-2.941286" y="0.775623" fill="#e6e6e6" transform="matrix(0.255,-0.967,0.967,0.255,360.152,233.052) " height="144.669" width="1.942" id="Rectangle_10"/>
 <path fill="#9f616a" d="m311.85,246.680009s43.695,-26.1 63.123,-8.614s-56.341,42.741 -56.341,42.741l-6.782,-34.127z" id="Path_14"/>
 <path fill="#3f3d56" d="m264.234,259.441009l56.341,-21.371s-9.714,36.913 9.714,38.856l-27.2,33.027s-54.397,0.001 -38.855,-50.512z" id="Path_15"/>
 <path fill="#e6e6e6" d="m412.494,258.642007l74.761,25.2l-17.693,38.566l-74.761,-25.2l17.693,-38.566z" id="Path_16"/>
 <path fill="#ccc" d="m544.967,176.873007l56.341,-42.742l-15.542,52.456l-58.284,42.741l17.485,-52.455z" id="Path_17"/>
 <rect x="-1.837327" y="2.424419" fill="#e6e6e6" transform="matrix(0.797,-0.604,0.604,0.797,517.184,244.936) " height="1.943" width="70.718" id="Rectangle_11"/>
 <rect x="-1.837327" y="2.424419" fill="#e6e6e6" transform="matrix(0.797,-0.604,0.604,0.797,513.298,266.307) " height="1.943" width="70.718" id="Rectangle_12"/>
 <path fill="#9f616a" d="m577.023,240.013009s48.57,-29.142 17.485,-40.8s-31.085,33.027 -31.085,33.027s-1.942,9.716 13.6,7.773z" id="Path_18"/>
 <path opacity="0.1" d="m292.4,174.930007l-1.943,75.769l30.113,-8.594l-24.285,0.822l-3.885,-67.997z" id="Path_19"/>
 <path fill="#8985a8" d="m80.409,598.934009c6.073,22.45 26.875,36.354 26.875,36.354s10.955,-22.495 4.882,-44.945s-26.875,-36.354 -26.875,-36.354s-10.956,22.491 -4.882,44.945z" id="Path_20"/>
 <path fill="#3f3d56" d="m89.333,594.110009c16.665,16.223 18.7,41.16 18.7,41.16s-24.984,-1.364 -41.648,-17.587s-18.7,-41.16 -18.7,-41.16s24.983,1.364 41.648,17.587z" id="Path_21"/>
 <rect x="626" y="382.199997" fill="#f2f2f2" height="30" width="30" id="Rectangle_13"/>
 <rect x="506" y="42.200008" fill="#f2f2f2" height="30" width="30" id="Rectangle_14"/>
 <circle fill="#f2f2f2" r="15" cy="331.199997" cx="159" id="Ellipse_2"/>
</svg>